<svg xmlns="http://www.w3.org/2000/svg" width="20" height="20" fill="#818594" viewBox="0 0 20 20">
  <path fill-rule="evenodd" d="M2.5 2.5v5.036h5.036V2.5H2.5Zm0 9.964V17.5h5.036v-5.036H2.5Zm15-9.964h-5.036v5.036H17.5V2.5Zm-2.518 9.964a2.518 2.518 0 1 0 0 5.036 2.518 2.518 0 0 0 0-5.036ZM1 2.5A1.5 1.5 0 0 1 2.5 1h5.036a1.5 1.5 0 0 1 1.5 1.5v5.036a1.5 1.5 0 0 1-1.5 1.5H2.5a1.5 1.5 0 0 1-1.5-1.5V2.5Zm0 9.964a1.5 1.5 0 0 1 1.5-1.5h5.036a1.5 1.5 0 0 1 1.5 1.5V17.5a1.5 1.5 0 0 1-1.5 1.5H2.5A1.5 1.5 0 0 1 1 17.5v-5.036ZM10.964 2.5a1.5 1.5 0 0 1 1.5-1.5H17.5A1.5 1.5 0 0 1 19 2.5v5.036a1.5 1.5 0 0 1-1.5 1.5h-5.036a1.5 1.5 0 0 1-1.5-1.5V2.5Zm0 12.482a4.018 4.018 0 1 1 8.036 0 4.018 4.018 0 0 1-8.036 0Z" clip-rule="evenodd"/>
</svg>
