<svg fill="none" height="64" viewBox="0 0 64 64" width="64" xmlns="http://www.w3.org/2000/svg" xmlns:xlink="http://www.w3.org/1999/xlink"><linearGradient id="a" gradientUnits="userSpaceOnUse" x1="-.102411" x2="64.0532" y1="32.0002" y2="32.0002"><stop offset="0" stop-color="#fb43ff"/><stop offset=".97" stop-color="#fb406d"/></linearGradient><path d="m1.30634 51.2446c-.09688-.0713-.12875-.2019-.07625-.31l7.63562-15.7256-8.8074964-10.5182c-.08875-.1056-.074375-.2637.031875-.3518l25.6887114-21.40691c4.5707-3.809998 11.1882-3.917498 15.8838-.26062 4.6937 3.65687 6.1937 10.08813 3.5969 15.43623l-2.7994 5.7669c1.0919-.3663 2.1725-.6994 3.2412-.9988l12.6738-3.6406c.1381-.04.2819.045.3131.1856l5.3056 23.585c.0325.1457-.0662.2882-.215.3069-1.6818.2119-10.8575 1.53-22.2812 6.3294-12.9431 5.4362-21.4844 13.1625-22.6944 14.2925-.0894.0837-.2206.0869-.3187.0144z" fill="url(#a)"/><path d="m52 12.0002h-40v40h40z" fill="#000"/><g fill="#fff"><path d="m21.4666 26.3728-5.4881-9.3788h3.1513l3.3981 5.9919.3969.8575.3968-.8681 3.3119-5.9813h3.0975l-5.4025 9.3575v5.6488h-2.8619z"/><path d="m33 44.0002h-16v3h16z"/><path d="m42.3248 16.994h-12.0369l-.0006 2.6369h4.5662v12.3694h2.9263v-12.3694h4.545z"/></g></svg>